<?xml version="1.0" encoding="utf-8"?>
<!-- Generator: Adobe Illustrator 26.0.3, SVG Export Plug-In . SVG Version: 6.00 Build 0)  -->
<svg version="1.1" id="Capa_1" xmlns="http://www.w3.org/2000/svg" xmlns:xlink="http://www.w3.org/1999/xlink" x="0px" y="0px"
	 viewBox="0 0 16 16" style="enable-background:new 0 0 16 16;" xml:space="preserve">
<style type="text/css">
	.st0{fill:#2C2F87;}
	.st1{fill:#FFFFFF;}
</style>
<circle class="st0" cx="8" cy="8" r="8"/>
<g>
	<polygon class="st1" points="3.6,3.7 7.3,3.7 7.3,5.9 4.8,4.3 3.6,4.3 3.6,9.8 4.9,9.8 4.9,6 7.3,7.5 7.3,11.5 8,11.7 8.7,11.5 
		8.7,8.3 11.1,9.8 12.4,9.8 12.4,4.3 11.1,4.3 11,8.2 8.7,6.8 8.7,3.7 12.4,3.7 12.4,2.6 3.6,2.6 	"/>
	<polygon class="st1" points="11,11.5 8.7,12.1 8,12.3 7.3,12.1 4.9,11.5 4.9,10.4 3.6,10.4 3.6,11.2 3.6,12.3 4.9,12.6 8,13.4 
		11,12.6 12.4,12.3 12.4,11.2 12.4,10.4 11,10.4 	"/>
</g>
</svg>
